<svg width="259" height="43" viewBox="0 0 259 43" fill="none" xmlns="http://www.w3.org/2000/svg">
<g clip-path="url(#clip0_279_930)">
<path d="M14.9453 37.0414C12.7938 37.0414 10.8088 36.6999 8.99023 36.0169C7.1717 35.3341 5.58367 34.3728 4.22618 33.1333C2.8943 31.8686 1.85696 30.4015 1.11417 28.7318C0.371392 27.0624 0 25.2285 0 23.2302C0 21.2319 0.371392 19.3979 1.11417 17.7284C1.85696 16.059 2.8943 14.6045 4.22618 13.365C5.58367 12.1002 7.1717 11.1264 8.99023 10.4434C10.8088 9.76044 12.7938 9.41895 14.9453 9.41895C17.1224 9.41895 19.1075 9.76044 20.9003 10.4434C22.7189 11.1264 24.2941 12.1002 25.6261 13.365C26.9579 14.6045 27.9952 16.059 28.738 17.7284C29.5064 19.3979 29.8906 21.2319 29.8906 23.2302C29.8906 25.2285 29.5064 27.0751 28.738 28.7698C27.9952 30.4393 26.9579 31.8939 25.6261 33.1333C24.2941 34.3728 22.7189 35.3341 20.9003 36.0169C19.1075 36.6999 17.1224 37.0414 14.9453 37.0414ZM14.9453 30.8187C15.9699 30.8187 16.9175 30.6417 17.7884 30.2876C18.6849 29.9334 19.4532 29.4276 20.0936 28.7698C20.7594 28.0868 21.2718 27.2774 21.6304 26.3415C22.0146 25.4055 22.2067 24.3685 22.2067 23.2302C22.2067 22.0666 22.0146 21.0295 21.6304 20.1189C21.2718 19.1829 20.7594 18.3861 20.0936 17.7284C19.4532 17.0455 18.6849 16.5269 17.7884 16.1728C16.9175 15.8187 15.9699 15.6416 14.9453 15.6416C13.9208 15.6416 12.9603 15.8187 12.0638 16.1728C11.193 16.5269 10.4246 17.0455 9.75864 17.7284C9.11831 18.3861 8.60605 19.1829 8.22185 20.1189C7.86327 21.0295 7.68397 22.0666 7.68397 23.2302C7.68397 24.3685 7.86327 25.4055 8.22185 26.3415C8.60605 27.2774 9.11831 28.0868 9.75864 28.7698C10.4246 29.4276 11.193 29.9334 12.0638 30.2876C12.9603 30.6417 13.9208 30.8187 14.9453 30.8187Z" fill="white"/>
<path d="M32.8374 36.5098V16.1724C32.8374 13.6935 33.5802 11.7204 35.0658 10.2533C36.577 8.76087 38.7284 8.01465 41.5202 8.01465C42.4168 8.01465 43.3003 8.1032 44.1713 8.28025C45.0421 8.45733 45.772 8.72293 46.3612 9.07706L44.5555 14.1614C44.2481 13.9844 43.9024 13.8452 43.5182 13.7441C43.134 13.6176 42.7498 13.5543 42.3656 13.5543C41.5972 13.5543 40.9953 13.782 40.5597 14.2373C40.1499 14.6673 39.9451 15.3377 39.9451 16.2483V17.7281L40.1372 20.7255V36.5098H32.8374ZM29.8022 22.0915V16.7036H44.9012V22.0915H29.8022Z" fill="white"/>
<path d="M46.9088 36.5101V16.1726C46.9088 13.6937 47.6515 11.7207 49.1371 10.2535C50.6483 8.76111 52.7999 8.01488 55.5917 8.01488C56.4881 8.01488 57.3718 8.10343 58.2426 8.28049C59.1134 8.45756 59.8435 8.72317 60.4325 9.0773L58.6268 14.1617C58.3194 13.9846 57.9737 13.8455 57.5895 13.7443C57.2053 13.6178 56.8211 13.5546 56.4369 13.5546C55.6685 13.5546 55.0666 13.7822 54.6312 14.2375C54.2214 14.6676 54.0164 15.3379 54.0164 16.2485V17.7283L54.2085 20.7257V36.5101H46.9088ZM43.8735 22.0918V16.7038H58.9725V22.0918H43.8735ZM62.315 36.5101V15.945H69.6149V36.5101H62.315ZM65.965 13.6684C64.6332 13.6684 63.5573 13.3016 62.7377 12.568C61.9181 11.8345 61.5083 10.9239 61.5083 9.83617C61.5083 8.74845 61.9181 7.83783 62.7377 7.10426C63.5573 6.3707 64.6332 6.00391 65.965 6.00391C67.297 6.00391 68.3726 6.35806 69.1922 7.06632C70.012 7.7493 70.4218 8.63462 70.4218 9.72234C70.4218 10.8606 70.012 11.8092 69.1922 12.568C68.3982 13.3016 67.3226 13.6684 65.965 13.6684Z" fill="white"/>
<path d="M83.4588 36.8515C81.1536 36.8515 79.0917 36.3962 77.2731 35.4856C75.4803 34.5751 74.0715 33.3229 73.0471 31.7293C72.0225 30.1105 71.5103 28.2639 71.5103 26.1895C71.5103 24.1154 72.0225 22.2815 73.0471 20.6879C74.0715 19.0943 75.4803 17.8548 77.2731 16.9695C79.0917 16.0588 81.1536 15.6035 83.4588 15.6035C85.8152 15.6035 87.8514 16.0968 89.5676 17.0833C91.2836 18.0698 92.5003 19.461 93.2175 21.2571L87.5697 24.1028C87.0831 23.1415 86.4811 22.4459 85.764 22.0159C85.0468 21.5605 84.2655 21.3329 83.4203 21.3329C82.5751 21.3329 81.8067 21.5226 81.1151 21.9021C80.4237 22.2815 79.873 22.8379 79.4632 23.5715C79.079 24.2798 78.8869 25.1525 78.8869 26.1895C78.8869 27.252 79.079 28.15 79.4632 28.8836C79.873 29.6172 80.4237 30.1736 81.1151 30.553C81.8067 30.9324 82.5751 31.1222 83.4203 31.1222C84.2655 31.1222 85.0468 30.9072 85.764 30.4772C86.4811 30.0219 87.0831 29.3136 87.5697 28.3523L93.2175 31.198C92.5003 32.994 91.2836 34.3854 89.5676 35.3718C87.8514 36.3584 85.8152 36.8515 83.4588 36.8515Z" fill="white"/>
<path d="M105.115 36.8515C102.656 36.8515 100.505 36.3962 98.6605 35.4856C96.8419 34.5498 95.4204 33.2849 94.3958 31.6913C93.397 30.0724 92.8975 28.2386 92.8975 26.1895C92.8975 24.1407 93.3841 22.3193 94.3575 20.7258C95.3563 19.1069 96.7266 17.8548 98.4684 16.9695C100.21 16.0588 102.17 15.6035 104.347 15.6035C106.396 15.6035 108.265 16.0209 109.956 16.8556C111.646 17.6651 112.991 18.8666 113.99 20.4602C114.989 22.0538 115.488 23.989 115.488 26.2656C115.488 26.5184 115.476 26.8094 115.45 27.1381C115.424 27.467 115.399 27.7706 115.373 28.0489H98.8909V24.2545H111.493L108.726 25.317C108.752 24.3809 108.573 23.5715 108.189 22.8885C107.83 22.2057 107.318 21.6743 106.652 21.2949C106.011 20.9155 105.256 20.7258 104.385 20.7258C103.514 20.7258 102.746 20.9155 102.08 21.2949C101.439 21.6743 100.94 22.2182 100.582 22.9265C100.223 23.6095 100.044 24.419 100.044 25.3548V26.4553C100.044 27.467 100.249 28.3397 100.658 29.0733C101.094 29.8069 101.709 30.376 102.503 30.7807C103.297 31.1602 104.244 31.3499 105.346 31.3499C106.37 31.3499 107.241 31.2107 107.958 30.9324C108.701 30.6289 109.431 30.1736 110.148 29.5666L113.99 33.5126C112.991 34.6004 111.762 35.4351 110.302 36.0168C108.842 36.5734 107.113 36.8515 105.115 36.8515Z" fill="white"/>
<path d="M175.971 31.0457C176.945 31.0457 177.803 30.8054 178.546 30.3248C179.288 29.8441 179.865 29.1738 180.274 28.3138C180.71 27.4538 180.928 26.4546 180.928 25.3163C180.928 24.1275 180.582 23.1789 179.89 22.4706C179.199 21.737 178.225 21.3701 176.97 21.3701C176.023 21.3701 175.165 21.6231 174.396 22.129C173.654 22.6097 173.064 23.28 172.629 24.14C172.219 25 172.014 25.9992 172.014 27.1375C172.014 28.3263 172.36 29.2749 173.052 29.9832C173.743 30.6915 174.716 31.0457 175.971 31.0457Z" fill="#FFA41B"/>
<path fill-rule="evenodd" clip-rule="evenodd" d="M118.749 22.1607L113.312 32.8153L113.99 33.5122C113.459 34.0907 112.862 34.5977 112.201 35.0332C112.068 35.3571 111.967 35.6936 111.9 36.0376L111.891 36.083C111.832 36.3862 111.803 36.6944 111.803 37.0031C111.803 37.5152 111.884 38.0242 112.045 38.5113L112.099 38.6774C112.222 39.0498 112.391 39.4056 112.603 39.7363C112.869 40.1515 113.2 40.5227 113.582 40.8362L113.966 41.1501L114.758 41.6691C115.03 41.8475 115.322 41.9952 115.627 42.1096C116.118 42.2932 116.638 42.3885 117.163 42.3905L227.451 42.8284C228.937 42.8343 230.415 42.6481 231.852 42.275L233.894 41.6001L235.696 40.8128L237.019 40.1379C237.899 39.539 238.73 38.8735 239.506 38.1475L239.663 38.001C240.381 37.3279 241.031 36.5857 241.601 35.7853L241.945 35.3018L258.228 7.95612C258.662 7.22981 258.89 6.40253 258.89 5.55994V5.36385C258.89 4.78531 258.757 4.21415 258.505 3.6925C258.361 3.39722 258.18 3.12115 257.967 2.8709L257.638 2.48772C257.43 2.24512 257.202 2.02117 256.956 1.81849C256.563 1.49828 256.13 1.2338 255.665 1.03277L254.803 0.660983C253.77 0.288959 252.678 0.0986328 251.578 0.0986328H140.315C139.094 0.0986328 137.877 0.211596 136.678 0.436043L134.995 0.885923L133.433 1.44827L131.51 2.34804L130.068 3.24779C129.03 4.07035 128.08 4.99726 127.236 6.01363L126.824 6.50942L125.742 8.19646L124.574 10.3522C126.376 9.72964 128.452 9.41836 130.803 9.41836C132.724 9.41836 134.517 9.62072 136.182 10.0254C137.846 10.4049 139.281 10.9614 140.485 11.6949L137.718 17.2726C136.668 16.6149 135.503 16.1216 134.222 15.7928C132.967 15.4386 131.674 15.2616 130.342 15.2616C129.317 15.2616 128.434 15.3754 127.691 15.6031C126.974 15.8307 126.423 16.1469 126.039 16.5516C125.68 16.9311 125.501 17.3611 125.501 17.8417C125.501 18.3476 125.731 18.765 126.193 19.0939C126.654 19.4226 127.268 19.7009 128.037 19.9286C128.831 20.1562 129.689 20.3964 130.611 20.6495C131.558 20.8772 132.493 21.1553 133.415 21.4842C134.337 21.7878 135.196 22.2052 135.99 22.7363C136.784 23.2422 137.411 23.8872 137.872 24.6713C138.333 25.4557 138.564 26.4296 138.564 27.5931C138.564 29.4901 138.039 31.147 136.989 32.5636C135.938 33.9802 134.44 35.0805 132.493 35.8646C130.547 36.6488 128.254 37.0408 125.616 37.0408C124.079 37.0408 122.607 36.9144 121.198 36.6613C119.789 36.4338 118.509 36.1049 117.356 35.6749C116.203 35.2196 115.217 34.7263 114.398 34.1952L117.394 28.5796C118.316 29.1362 119.264 29.6167 120.237 30.0214C121.236 30.4009 122.248 30.6917 123.273 30.8942C124.297 31.0964 125.322 31.1976 126.346 31.1976C127.319 31.1976 128.152 31.1092 128.843 30.932C129.535 30.7297 130.06 30.4514 130.419 30.0973C130.777 29.7431 130.957 29.3259 130.957 28.8451C130.957 28.314 130.713 27.8965 130.226 27.5931C129.765 27.2643 129.151 26.986 128.382 26.7582C127.614 26.5307 126.756 26.3029 125.808 26.0754C124.886 25.8224 123.951 25.5315 123.004 25.2027C122.082 24.8485 121.236 24.4185 120.468 23.9127C119.783 23.4391 119.21 22.8552 118.749 22.1607ZM160.173 16.7034C158.944 15.9698 157.471 15.6031 155.755 15.6031C154.218 15.6031 152.707 15.9572 151.222 16.6655C150.682 16.9275 150.173 17.2466 149.696 17.6228L151.567 8.35595H144.267L138.581 36.5096H145.881L147.956 26.341C148.289 24.7727 148.878 23.6091 149.723 22.8502C150.568 22.0914 151.606 21.7119 152.835 21.7119C154.039 21.7119 154.859 22.0661 155.294 22.7744C155.755 23.4825 155.845 24.4944 155.563 25.8096L153.411 36.5096H160.711L163.016 25.1268C163.452 23.0272 163.401 21.2819 162.863 19.8906C162.325 18.474 161.428 17.4117 160.173 16.7034ZM173.436 36.8511C171.95 36.8511 170.529 36.4844 169.171 35.7508C167.814 35.0172 166.712 33.9547 165.867 32.5636C165.047 31.1723 164.638 29.4776 164.638 27.4793C164.638 25.7591 164.932 24.1782 165.521 22.7363C166.11 21.2945 166.917 20.0425 167.942 18.98C168.992 17.9176 170.196 17.0955 171.553 16.5137C172.936 15.9066 174.396 15.6031 175.933 15.6031C177.623 15.6031 179.071 15.9319 180.274 16.5896C181.1 17.0141 181.775 17.6209 182.3 18.4101L182.81 15.9445H190.109L185.96 36.5096H179.045L179.455 34.5709C179.097 34.9087 178.716 35.2135 178.315 35.4852C176.932 36.3958 175.305 36.8511 173.436 36.8511ZM193.273 15.9445L189.122 36.5096H196.423L198.421 26.7963C198.754 25.0763 199.419 23.8494 200.419 23.1158C201.443 22.3569 202.749 21.9775 204.337 21.9775C204.619 21.9775 204.889 21.9902 205.145 22.0155C205.401 22.0155 205.683 22.0408 205.989 22.0914L207.256 15.6031C205.234 15.6031 203.466 15.9445 201.955 16.6275C201.125 17.0029 200.383 17.5235 199.731 18.1893L200.189 15.9445H193.273ZM211.844 36.5096L212.741 32.0733L215.716 29.4872L219.989 36.5096H228.518L221.525 25.0622L232.207 15.9445H222.987L214.58 22.967L217.53 8.35595H210.231L204.545 36.5096H211.844ZM229.624 35.7508C230.392 36.4844 231.39 36.8511 232.62 36.8511C233.466 36.8511 234.234 36.6613 234.926 36.2819C235.643 35.8772 236.206 35.3335 236.617 34.6505C237.052 33.9675 237.269 33.1706 237.269 32.26C237.269 31.0964 236.884 30.1479 236.116 29.4143C235.374 28.6807 234.388 28.314 233.158 28.314C231.878 28.314 230.775 28.7312 229.854 29.5662C228.933 30.4009 228.471 31.5139 228.471 32.905C228.471 34.0433 228.854 34.9919 229.624 35.7508Z" fill="#FFA41B"/>
</g>
<defs>
<clipPath id="clip0_279_930">
<rect width="259" height="43" fill="white"/>
</clipPath>
</defs>
</svg>
